# xmcd
#
# Track frame offsets: 
#        150
#        17175
#        37676
#        61356
#        75803
#        93960
#        115046
#        117105
#        133429
#        164028
#        186147
#        195646
#        200334
#        216632
#        225888
#        249064
#        265579
#        278657
#
# Disc length: 3946 seconds
#
# Revision: 0
# Processed by: cddbd v1.5.2PL0 Copyright (c) Steve Scherf et al.
# Submitted via: ExactAudioCopyFreeDBPlugin 1.0
#
DISCID=e90f6812
DTITLE=Earth, Wind and Fire - Spirit
DYEAR=1976
DGENRE=Funk
TTITLE0=Getaway
TTITLE1=On Your Face
TTITLE2=Imagination
TTITLE3=Spirit
TTITLE4=Saturday Nite
TTITLE5=Earth Wind and Fire
TTITLE6=Departure
TTITLE7=Biyo
TTITLE8=Burnin' Bush
TTITLE9=Saturday Nite (Alternate Mix)
TTITLE10=Seraphim
TTITLE11=Imagination (Angels Mix)
TTITLE12=Departure (The Traveler)
TTITLE13=African Symphony
TTITLE14=Getaway (12' Version)
TTITLE15=Saturday Nite (Single Version)
TTITLE16=Departure (Single Version)
TTITLE17=Getaway (Instrumental Version)
EXTD=
EXTT0=
EXTT1=
EXTT2=
EXTT3=
EXTT4=
EXTT5=
EXTT6=
EXTT7=
EXTT8=
EXTT9=
EXTT10=
EXTT11=
EXTT12=
EXTT13=
EXTT14=
EXTT15=
EXTT16=
EXTT17=
PLAYORDER=
